<svg width="600" height="450" viewBox="0 0 800 600" fill="none" xmlns="http://www.w3.org/2000/svg" data-reactroot="">
<path fill-rule="evenodd" clip-rule="evenodd" d="M645.176 388.528L485.043 109.484L485.009 109.204L484.958 109.336L484.765 109L484.838 109.644L393.256 344.976L359.569 268.127L359.566 267.99L359.534 268.047L359.525 268.027L359.435 268.223L289.189 392.921L263.628 359.63L256.332 349.576L192.737 441.498L110.296 398.051L10.3398 490.607H234.16L234.158 490.61H363.647L504.643 490.609L504.697 490.977H619.604L619.372 490.609H789.987L645.176 388.528ZM696.374 193.594C719.734 193.594 738.671 174.657 738.671 151.297C738.671 127.937 719.734 109 696.374 109C673.014 109 654.077 127.937 654.077 151.297C654.077 174.657 673.014 193.594 696.374 193.594ZM83.7987 213.086L53.4253 228.269L109.24 246.108L231.84 244.765L332.086 245.035L331.97 244.628L255.24 168.653L255.305 168.629L190.711 168.068L190.443 168.143L155.337 199.488L155.201 199.428L83.7533 213.07L84.4674 213.295L83.7987 213.086Z" fill="#b5b2af"></path>
<path d="M645.188 388.528L484.777 109L527.75 490.609H789.999L645.188 388.528Z" fill="black" fill-opacity="0.37"></path>
<path d="M485.021 109.205L336.594 490.609H530.97L485.021 109.205Z" fill="#000000"></path>
<path d="M504.803 490.61L470.33 254.607L619.71 490.61H504.803Z" fill="#b5b2af"></path>
<path d="M359.629 267.65L257.281 490.232H541.471L469.884 253.464L423.224 412.726L359.629 267.65Z" fill="#b5b2af"></path>
<path d="M363.751 490.238L359.67 267.618L234.262 490.238H363.751Z" fill="#b5b2af"></path>
<path d="M504.801 490.61L470.328 254.607L619.708 490.61H504.801Z" fill="#000000"></path>
<path d="M363.751 490.239L359.67 267.619L234.262 490.239H363.751Z" fill="#000000"></path>
<path d="M83.8116 213.087L53.4512 228.288L109.266 246.127L137.97 230.023L83.8116 213.087Z" fill="black" fill-opacity="0.27"></path>
<path d="M155.185 199.441L83.6934 213.038L137.925 229.847L218.338 230.995L155.185 199.441Z" fill="white" fill-opacity="0.12"></path>
<path d="M231.83 244.718L211.162 184.951L332.037 245.015L231.83 244.718Z" fill="black" fill-opacity="0.46"></path>
<path d="M331.923 244.6L255.176 168.608L211.154 184.994L331.923 244.6Z" fill="black" fill-opacity="0.24"></path>
<path d="M231.882 245.015L211.16 184.951L332.036 245.015H231.882Z" fill="#000000"></path>
<path d="M255.992 349.199L202.379 490.23H10.0001L109.956 397.674L192.397 441.121L255.992 349.199Z" fill="#000000"></path>
<path d="M203.326 489.517L255.991 349.746L363.307 489.517H203.326Z" fill="#b5b2af"></path>
<path d="M228.911 199.054L231.812 244.566L218.722 231.145L155.338 199.556L190.444 168.211L228.911 199.054Z" fill="#b5b2af"></path>
</svg>
