<svg width="200" height="150" viewBox="0 0 800 600" fill="none" xmlns="http://www.w3.org/2000/svg" data-reactroot="">
<path d="M464.302 323.365L417.392 425.327L409.769 441.908H295.11L287.487 425.327L240.577 323.365L255.966 243.233L320.282 219.854H384.598L448.913 243.233L464.302 323.365Z" fill="#a8a4a4"></path>
<path d="M384.161 172.24V232.633C384.161 235.527 382.744 238.217 380.441 239.97C366.612 250.426 336.589 249.835 324.941 239.909C322.577 237.901 320.722 235.343 320.722 232.235V172.24H384.161Z" fill="#534d52"></path>
<path d="M370.03 223.913C356.792 234.217 345.119 233.862 334.854 223.913V182.258H370.03V223.913Z" fill="#000000"></path>
<path opacity="0.42" d="M384.161 172.24V197.963C362.416 212.616 341.359 216.275 320.722 198.166V172.24H384.161Z" fill="black"></path>
<path fill-rule="evenodd" clip-rule="evenodd" d="M337.433 186.203H367.451V221.016L367.129 221.267C361.704 225.49 356.506 227.601 351.537 227.564C346.551 227.526 341.936 225.326 337.686 221.208L337.433 220.962V186.203ZM339.102 187.873V220.252C343.049 223.989 347.189 225.861 351.549 225.894C355.927 225.927 360.661 224.108 365.781 220.198V187.873H339.102Z" fill="#a8a4a4"></path>
<path d="M352.47 197.891H344.067C319.633 197.891 299.825 178.083 299.825 153.649V101.373C299.825 76.9388 319.633 74.623 344.067 74.623H352.47C376.904 74.623 396.712 76.9388 396.712 101.373V153.649C396.712 178.083 376.904 197.891 352.47 197.891Z" fill="#000000"></path>
<path d="M463.894 330.011C463.894 330.011 486.846 448.266 520.236 456.614C553.627 464.962 502.293 319.994 502.293 319.994L492.275 281.595H463.894V330.011Z" fill="#534d52"></path>
<path d="M455.545 248.204C455.545 248.204 510.639 258.221 515.648 298.29C520.656 338.358 546.169 456.883 546.169 456.883L520.235 456.614L500.889 320.521C501.725 307.265 493.929 294.98 481.58 290.091L463.892 283.09L455.545 248.204Z" fill="#a8a4a4"></path>
<path d="M465.171 350.679C470.014 350.148 473.237 343.307 472.37 335.401L463.121 251.079C462.392 244.436 458.96 238.973 454.832 237.885L450.277 236.685C444.234 235.093 439.631 243.346 441.187 252.983L454.991 338.505C456.182 345.886 460.609 351.179 465.171 350.679Z" fill="#a8a4a4"></path>
<path d="M541.548 467.695C560.611 467.695 576.066 452.241 576.066 433.178C576.066 414.114 560.611 398.66 541.548 398.66C522.484 398.66 507.03 414.114 507.03 433.178C507.03 452.241 522.484 467.695 541.548 467.695Z" fill="#534d52"></path>
<path d="M571.084 287.231L600.813 293.279C600.813 293.279 570.816 447.554 560.333 453.399C547.503 460.551 528.446 461.128 519.588 437.213C512.11 417.021 565.872 320.513 571.084 287.231Z" fill="#a8a4a4"></path>
<path d="M396.481 78.573V101.625L300.053 95.4188V78.573C300.053 77.0648 300.236 75.5972 300.573 74.1909C302.672 65.4775 310.896 58.9756 320.73 58.9756H375.803C384.893 58.9756 392.618 64.5399 395.38 72.2647C396.094 74.2418 396.481 76.3615 396.481 78.573Z" fill="#000000"></path>
<path d="M248.7 329.614C248.7 329.614 264.91 491.899 231.52 500.247C198.129 508.594 200.943 319.993 200.943 319.993L210.96 281.594L245.729 279.701L248.7 329.614Z" fill="#534d52"></path>
<path d="M247.691 248.204C247.691 248.204 192.597 258.221 187.588 298.29C182.58 338.358 205.587 500.516 205.587 500.516L231.521 500.247L202.346 320.521C201.511 307.265 209.307 294.98 221.656 290.091L239.343 283.09L247.691 248.204Z" fill="#a8a4a4"></path>
<path d="M246.874 351.303C242.007 351.517 237.778 345.249 237.428 337.302L233.703 252.557C233.409 245.88 235.967 239.957 239.881 238.253C239.881 238.253 241.357 237.037 248.701 237.956C256.044 238.875 257.845 241.791 257.778 251.553L255.077 337.718C255.026 345.195 251.459 351.101 246.874 351.303Z" fill="#534d52"></path>
<path d="M230.726 515.277C249.789 515.277 265.243 499.823 265.243 480.76C265.243 461.696 249.789 446.242 230.726 446.242C211.662 446.242 196.208 461.696 196.208 480.76C196.208 499.823 211.662 515.277 230.726 515.277Z" fill="#534d52"></path>
<path d="M419.222 281.595L408.223 368.41C372.082 371.435 334.894 371.888 296.659 368.41L285.66 281.595C308.033 261.894 402.437 261.973 419.222 281.595Z" fill="#000000"></path>
<path d="M408.221 287.731L399.034 360.247C368.845 362.774 337.783 363.153 305.846 360.247L296.658 287.731C315.346 271.275 394.201 271.341 408.221 287.731Z" fill="#a8a4a4"></path>
<path d="M393.288 296.063L386.56 349.163C364.455 351.013 341.709 351.291 318.323 349.163L311.596 296.063C325.28 284.013 383.021 284.062 393.288 296.063Z" fill="#534d52"></path>
<path d="M368.997 165.965C370.667 170.344 364.857 184.854 348.81 184.052C338.566 183.539 329.909 171.795 331.609 165.965L331.609 165.965L331.609 165.965C344.447 168.852 356.943 169.11 368.997 165.965Z" fill="#a8a4a4"></path>
<path fill-rule="evenodd" clip-rule="evenodd" d="M391.062 58.5607C391.979 54.896 395.693 52.6683 399.358 53.585L399.155 54.3948L399.358 53.585L406.794 55.4451C410.459 56.3618 412.686 60.0758 411.77 63.7405L404.24 93.8433C403.323 97.508 399.609 99.7357 395.944 98.819L388.508 96.9589C384.843 96.0422 382.616 92.3282 383.532 88.6635L391.062 58.5607ZM398.953 55.2046C396.182 54.5116 393.375 56.1956 392.682 58.9658L385.152 89.0686C384.459 91.8388 386.143 94.6463 388.913 95.3393L396.349 97.1994C399.119 97.8923 401.927 96.2084 402.62 93.4382L410.15 63.3353C410.843 60.5651 409.159 57.7577 406.389 57.0647L398.953 55.2046L399.154 54.3978L398.953 55.2046Z" fill="#a8a4a4"></path>
<path fill-rule="evenodd" clip-rule="evenodd" d="M411.989 25.9864L397.212 84.581L395.593 84.1727L410.37 25.5781L411.989 25.9864Z" fill="#a8a4a4"></path>
<path opacity="0.3" d="M411.178 41.5655C402.475 41.5655 395.395 34.4855 395.395 25.7822C395.395 17.08 402.475 10 411.178 10C419.881 10 426.961 17.08 426.961 25.7822C426.961 34.4855 419.881 41.5655 411.178 41.5655Z" fill="#534d52"></path>
<path opacity="0.3" d="M411.177 36.4701C405.283 36.4701 400.489 31.6761 400.489 25.7824C400.489 19.8897 405.283 15.0957 411.177 15.0957C417.071 15.0957 421.865 19.8897 421.865 25.7824C421.865 31.6761 417.071 36.4701 411.177 36.4701Z" fill="#534d52"></path>
<path d="M411.179 31.3743C414.267 31.3743 416.771 28.8707 416.771 25.7824C416.771 22.694 414.267 20.1904 411.179 20.1904C408.091 20.1904 405.587 22.694 405.587 25.7824C405.587 28.8707 408.091 31.3743 411.179 31.3743Z" fill="#534d52"></path>
<path d="M299.637 382.748C301.499 382.748 303.009 381.238 303.009 379.376C303.009 377.514 301.499 376.004 299.637 376.004C297.774 376.004 296.265 377.514 296.265 379.376C296.265 381.238 297.774 382.748 299.637 382.748Z" fill="#a8a4a4"></path>
<path d="M308.767 382.748C310.629 382.748 312.139 381.238 312.139 379.376C312.139 377.514 310.629 376.004 308.767 376.004C306.904 376.004 305.395 377.514 305.395 379.376C305.395 381.238 306.904 382.748 308.767 382.748Z" fill="#000000"></path>
<path d="M317.896 382.748C319.758 382.748 321.268 381.238 321.268 379.376C321.268 377.514 319.758 376.004 317.896 376.004C316.033 376.004 314.523 377.514 314.523 379.376C314.523 381.238 316.033 382.748 317.896 382.748Z" fill="#534d52"></path>
<path d="M369.139 165.822C369.394 166.023 369.463 166.506 369.41 167.15C369.046 171.58 364.958 173.778 360.579 174.539C353.325 175.798 342.114 174.764 335.831 172.14C333.486 171.161 331.384 169.506 331.445 166.965C331.456 166.494 331.544 166.089 331.751 165.822C344.594 168.877 357.081 169.076 369.139 165.822Z" fill="white"></path>
<path d="M274.036 565.073L299.636 547.673C299.636 547.673 260.281 472.409 246.424 467.228C229.466 460.887 215.286 467.947 212.09 484.686C208.894 501.424 246.413 544.174 274.036 565.073Z" fill="#a8a4a4"></path>
<path d="M291.661 538.004C300.97 531.29 309.602 525.6 321.517 526.629C328.105 528.538 335.969 532.072 340.626 536.809C345.283 541.546 347.719 547.758 349.397 553.038C350.191 555.534 349.141 555.831 347.679 556.403C345.729 557.166 343.203 556.706 341.788 554.637C339.318 551.028 337.455 546.905 333.18 544.805C328.905 542.704 322.68 541.789 318.6 543.271C314.52 544.753 314.169 546.843 314.904 550.272C307.646 539.47 304.334 542.484 291.661 538.004Z" fill="#a8a4a4"></path>
<path d="M312 583.886C312 583.886 293.171 581.409 281.16 574.122C266.049 564.955 275.236 550.25 275.236 550.25L312 583.886Z" fill="#a8a4a4"></path>
<path d="M602.562 299.171C598.304 304.597 579.669 306.703 567.096 293.278C554.523 279.854 538.583 250.443 551.565 241.224C556.943 237.405 561.064 263.775 563.99 255.867C570.036 239.528 567.661 197.462 581.659 197.462C586.448 197.462 579.852 211.338 583.958 216.819C588.634 223.061 587.898 228.555 591.057 237.581C596.22 252.331 614.888 260.658 613.636 266.639C610.947 279.493 602.562 299.171 602.562 299.171Z" fill="#a8a4a4"></path>
<path d="M413.178 434.496L409.771 441.907H295.111L291.829 434.769L413.178 434.496Z" fill="black" fill-opacity="0.5"></path>
<g opacity="0.25">
<path opacity="0.25" d="M396.481 107.576L300.053 101.37V84.5239C300.053 83.0156 300.053 79.9614 300.053 79.9614C332.899 65.3881 368.54 66.5423 396.137 78.1804C396.958 81.6267 396.525 82.9194 396.481 84.5239V107.576Z" fill="#a8a4a4"></path>
</g>
<path d="M413.438 453.398H291.443C287.504 453.398 284.311 450.205 284.311 446.266V446.266C284.311 442.326 287.504 439.133 291.443 439.133H413.438C417.378 439.133 420.571 442.326 420.571 446.266V446.266C420.571 450.205 417.378 453.398 413.438 453.398Z" fill="#534d52"></path>
<path opacity="0.25" d="M307.885 160.683C307.885 160.683 389.676 168.075 395.336 164.63C395.336 164.63 396.045 161.144 396.226 159.332L302.534 156.896L307.885 160.683Z" fill="#a8a4a4"></path>
<path d="M391.26 160.683H304.901C304.901 160.683 288.752 159.946 285.771 152.361C280.761 139.614 275.75 126.866 270.74 114.119C268.305 107.925 270.277 100.804 275.66 96.89C326.34 60.0479 386.389 66.7552 421.541 96.4272C426.393 100.523 428.126 107.24 425.803 113.149C420.665 126.22 415.528 139.29 410.39 152.361C407.409 159.946 391.26 160.683 391.26 160.683Z" fill="#a8a4a4"></path>
<path d="M385.963 139.88C361.621 132.841 334.911 132.841 310.569 139.88C306.377 141.085 301.571 139.771 299.724 136.641C297.931 133.492 296.138 130.342 294.345 127.192C292.5 124.072 295.281 119.96 300.697 118.397C331.414 109.515 365.118 109.515 395.835 118.397C401.252 119.96 404.032 124.072 402.186 127.192C400.394 130.342 398.601 133.492 396.808 136.641C394.961 139.771 390.155 141.085 385.963 139.88Z" fill="white"></path>
<path d="M332.413 127.156C324.119 126.52 315.534 128.304 308.18 132.192C306.913 132.859 305.281 132.758 304.478 131.875C303.692 130.983 302.905 130.09 302.118 129.197C301.317 128.318 301.936 126.81 303.572 125.946C312.852 121.04 323.685 118.789 334.151 119.592C335.996 119.732 337.165 120.869 336.78 121.995C336.414 123.127 336.048 124.259 335.682 125.391C335.298 126.52 333.841 127.264 332.413 127.156Z" fill="#a8a4a4"></path>
<path d="M363.805 127.156C372.099 126.52 380.684 128.304 388.038 132.192C389.305 132.859 390.937 132.758 391.74 131.875C392.527 130.983 393.313 130.09 394.1 129.197C394.901 128.318 394.282 126.81 392.646 125.946C383.366 121.04 372.533 118.789 362.067 119.592C360.222 119.732 359.054 120.869 359.438 121.995C359.804 123.127 360.17 124.259 360.536 125.391C360.921 126.52 362.378 127.264 363.805 127.156Z" fill="#a8a4a4"></path>
<path fill-rule="evenodd" clip-rule="evenodd" d="M316.669 340.134C316.669 339.852 316.897 339.624 317.178 339.624H387.703C387.985 339.624 388.213 339.852 388.213 340.134C388.213 340.415 387.985 340.643 387.703 340.643H317.178C316.897 340.643 316.669 340.415 316.669 340.134Z" fill="#a8a4a4"></path>
<path fill-rule="evenodd" clip-rule="evenodd" d="M316.669 334.874C316.669 334.592 316.897 334.364 317.178 334.364H387.703C387.985 334.364 388.213 334.592 388.213 334.874C388.213 335.155 387.985 335.383 387.703 335.383H317.178C316.897 335.383 316.669 335.155 316.669 334.874Z" fill="#a8a4a4"></path>
<path fill-rule="evenodd" clip-rule="evenodd" d="M316.669 329.615C316.669 329.334 316.897 329.105 317.178 329.105H387.703C387.985 329.105 388.213 329.334 388.213 329.615C388.213 329.896 387.985 330.125 387.703 330.125H317.178C316.897 330.125 316.669 329.896 316.669 329.615Z" fill="#a8a4a4"></path>
<path d="M465.171 350.679C470.014 350.148 473.237 343.307 472.37 335.401L463.121 251.079C462.392 244.436 458.96 238.973 454.832 237.885L450.277 236.685C444.234 235.093 439.631 243.346 441.187 252.983L454.991 338.505C456.182 345.886 460.609 351.179 465.171 350.679Z" fill="#534d52"></path>
<path d="M408.221 287.731L399.034 360.247C368.845 362.774 337.783 363.153 305.846 360.247L296.658 287.731C315.346 271.275 394.201 271.341 408.221 287.731Z" fill="#a8a4a4"></path>
<path d="M393.288 296.063L386.56 349.163C364.455 351.013 341.709 351.291 318.323 349.163L311.596 296.063C325.28 284.013 383.021 284.062 393.288 296.063Z" fill="#534d52"></path>
<path d="M368.997 165.965C370.667 170.344 364.857 184.854 348.81 184.052C338.566 183.539 329.909 171.795 331.609 165.965L331.609 165.965L331.609 165.965C344.447 168.852 356.943 169.11 368.997 165.965Z" fill="#464646"></path>
<path d="M299.637 382.748C301.499 382.748 303.009 381.238 303.009 379.376C303.009 377.514 301.499 376.004 299.637 376.004C297.774 376.004 296.265 377.514 296.265 379.376C296.265 381.238 297.774 382.748 299.637 382.748Z" fill="#534d52"></path>
<path d="M308.767 382.748C310.629 382.748 312.139 381.238 312.139 379.376C312.139 377.514 310.629 376.004 308.767 376.004C306.904 376.004 305.395 377.514 305.395 379.376C305.395 381.238 306.904 382.748 308.767 382.748Z" fill="#000000"></path>
<path d="M317.896 382.748C319.758 382.748 321.268 381.238 321.268 379.376C321.268 377.514 319.758 376.004 317.896 376.004C316.033 376.004 314.523 377.514 314.523 379.376C314.523 381.238 316.033 382.748 317.896 382.748Z" fill="#534d52"></path>
<path d="M369.139 165.822C369.394 166.023 369.463 166.506 369.41 167.15C369.046 171.58 364.958 173.778 360.579 174.539C353.325 175.798 342.114 174.764 335.831 172.14C333.486 171.161 331.384 169.506 331.445 166.965C331.456 166.494 331.544 166.089 331.751 165.822C344.594 168.877 357.081 169.076 369.139 165.822Z" fill="white"></path>
<path opacity="0.25" d="M307.885 160.683C307.885 160.683 389.676 168.075 395.336 164.63C395.336 164.63 396.045 161.144 396.226 159.332L302.534 156.896L307.885 160.683Z" fill="#a8a4a4"></path>
<path fill-rule="evenodd" clip-rule="evenodd" d="M316.669 340.134C316.669 339.852 316.897 339.624 317.178 339.624H387.703C387.985 339.624 388.213 339.852 388.213 340.134C388.213 340.415 387.985 340.643 387.703 340.643H317.178C316.897 340.643 316.669 340.415 316.669 340.134Z" fill="#a8a4a4"></path>
<path fill-rule="evenodd" clip-rule="evenodd" d="M316.669 334.874C316.669 334.592 316.897 334.364 317.178 334.364H387.703C387.985 334.364 388.213 334.592 388.213 334.874C388.213 335.155 387.985 335.383 387.703 335.383H317.178C316.897 335.383 316.669 335.155 316.669 334.874Z" fill="#a8a4a4"></path>
<path fill-rule="evenodd" clip-rule="evenodd" d="M316.669 329.615C316.669 329.334 316.897 329.105 317.178 329.105H387.703C387.985 329.105 388.213 329.334 388.213 329.615C388.213 329.896 387.985 330.125 387.703 330.125H317.178C316.897 330.125 316.669 329.896 316.669 329.615Z" fill="#a8a4a4"></path>
<path d="M280.037 576.402C267.844 565.132 289.093 525.87 311.355 536.505C321.803 541.496 354.576 554.05 352.44 558.9C350.305 563.75 332.295 586.013 317.006 589.306C296.974 593.621 280.037 576.402 280.037 576.402Z" fill="#a8a4a4"></path>
</svg>
